`                                                                  
               ,o888888o.     8 888888888o.      8 888888888o.      
            . 8888     `88.   8 8888    `^888.   8 8888    `^888.   
           ,8 8888       `8b  8 8888        `88. 8 8888        `88. 
           88 8888        `8b 8 8888         `88 8 8888         `88 
           88 8888         88 8 8888          88 8 8888          88 
           88 8888         88 8 8888          88 8 8888          88 
           88 8888        ,8P 8 8888         ,88 8 8888         ,88 
           `8 8888       ,8P  8 8888        ,88' 8 8888        ,88' 
            ` 8888     ,88'   8 8888    ,o88P'   8 8888    ,o88P'   
               `8888888P'     8 888888888P'      8 888888888P' 
     
                                   oddball                               
      8 888888888o            .8.  -links  8 8888         8 8888         
      8 8888    `88.         .888. .       8 8888         8 8888         
      8 8888     `88        :88888. c      8 8888         8 8888         
      8 8888     ,88       . `88888. o     8 8888         8 8888         
      8 8888.   ,88'      .8. `88888. m    8 8888         8 8888         
      8 8888888888       .8`8. `88888.     8 8888         8 8888         
      8 8888    `88.    .8' `8. `88888.    8 8888         8 8888         
      8 8888      88   .8'   `8. `88888.   8 8888         8 8888         
      8 8888    ,88'  .888888888. `88888.  8 8888         8 8888         
      8 888888888P   .8'       `8. `88888. 8 888888888888 8 888888888888 

Dumbo is a 1941 American animated feature produced by Walt Disney and released on October 23, 1941, by RKO Radio Pictures.

The fourth film in the Walt Disney Animated Classics series, Dumbo is based upon a child's book of the same name by Helen Aberson and illustrated by Harold Perl. The main character is Jumbo Jr., a semi-anthropomorphic elephant who is cruelly nicknamed Dumbo. He is ridiculed for his big ears, but in fact he is capable of flying by using his ears as wings. Throughout most of the film, his only true friend, aside from his mother, is the mouse, Timothy — a relationship parodying the stereotypical animosity between mice and elephants.


General
Complete name                    : Dumbo 
Format                           : AVI
Format/Info                      : Audio Video Interleave
File size                        : 1.30 GiB
Duration                         : 1h 1mn
Overall bit rate                 : 3 052 Kbps

Video
Format                           : MPEG-4 Visual
Format profile                   : Streaming Video@L1
Format settings, BVOP            : Yes
Format settings, QPel            : No
Format settings, GMC             : No warppoints
Format settings, Matrix          : Default
Muxing mode                      : Packed bitstream
Codec ID                         : XVID
Codec ID/Hint                    : XviD
Duration                         : 1h 1mn
Bit rate                         : 2 848 Kbps
Width                            : 1 024 pixels
Height                           : 582 pixels
Display aspect ratio             : 16/9
Frame rate                       : 29.970 fps
Resolution                       : 24 bits
Colorimetry                      : 4:2:0
Scan type                        : Progressive
Bits/(Pixel*Frame)               : 0.159
Stream size                      : 1.22 GiB (93%)
Writing library                  : XviD 1.1.0 (UTC 2005-11-22)

Audio
Format                           : MPEG Audio
Format version                   : Version 1
Format profile                   : Layer 3
Codec ID                         : 55
Codec ID/Hint                    : MP3
Duration                         : 1h 1mn
Bit rate mode                    : Constant
Bit rate                         : 192 Kbps
Channel(s)                       : 2 channels
Sampling rate                    : 44.1 KHz
Resolution                       : 16 bits
Video delay                      : 26ms
Stream size                      : 84.0 MiB (6%)
Alignment                        : Split accross interleaves
Interleave, duration             : 33 ms (1.00 video frame)
Title                            : Audio Stream


For more oddball torrents  http://thepiratebay.org/user/oddball-links `                                                                                                            Please seed after downloading `                                                                                            :::===  :::===== :::===== :::====       :::= === :::====  :::====
        :::     :::      :::      :::  ===      :::===== :::  === :::====
         =====  ======   ======   ===  ===      ======== ===  ===   ===  
            === ===      ===      ===  ===      === ==== ===  ===   ===  
        ======  ======== ======== =======       ===  ===  ======    ===  
                                                                         
                  :::=====  :::====  :::===== :::===== :::==== 
                  :::       :::  === :::      :::      :::  ===
                  === ===== =======  ======   ======   ===  ===
                  ===   === === ===  ===      ===      ===  ===
                   =======  ===  === ======== ======== =======	